<svg width="132" height="29" viewBox="0 0 132 29" fill="none" xmlns="http://www.w3.org/2000/svg">
<path d="M0.505362 29V5.66689H22.4586C29.264 5.66689 31.083 8.30128 31.083 10.967V11.312C31.083 14.2286 28.6054 15.5458 27.0687 15.8908C29.1386 16.3926 32.4316 17.7725 32.4316 21.8809V22.2572C32.4316 25.9266 30.2049 29 22.584 29H0.505362ZM19.7614 10.967H9.41209V14.26H19.7614C21.6118 14.26 22.1449 13.5073 22.1449 12.6292V12.5665C22.1449 11.657 21.6118 10.967 19.7614 10.967ZM20.326 19.4974H9.41209V23.5117H20.326C22.6467 23.5117 23.0858 22.414 23.0858 21.5046V21.4105C23.0858 20.4069 22.6154 19.4974 20.326 19.4974Z" fill="white"/>
<path d="M35.6309 6.44764V0.80955H54.4245C60.6891 0.80955 63.8213 3.94182 63.8213 10.2064V19.6032C63.8213 25.8677 60.6891 29 54.4245 29H35.6309V23.3619H53.6352C56.6422 23.3619 58.1457 21.8772 58.1457 18.9078V10.8829C58.1457 7.92607 56.6484 6.44764 53.654 6.44764H35.6309ZM69.4594 29V23.3619H97.6499V29H69.4594ZM69.4594 12.0857H97.6499V17.7238H69.4594V12.0857ZM69.4594 0.80955H97.6499V6.44764H69.4594V0.80955ZM116.444 19.3025L108.343 29H100.976L112.76 14.9048L100.976 0.80955H108.343L116.444 10.5071L124.544 0.80955H131.911L120.127 14.9048L131.911 29H124.544L116.444 19.3025Z" fill="url(#paint0_linear_195_352)"/>
<defs>
<linearGradient id="paint0_linear_195_352" x1="91.9197" y1="-1.97788" x2="133.068" y2="5.08149" gradientUnits="userSpaceOnUse">
<stop stop-color="#FDDC02"/>
<stop offset="1" stop-color="#FF9900"/>
</linearGradient>
</defs>
</svg>
