<svg width="137" height="14" viewBox="0 0 137 14" fill="none" xmlns="http://www.w3.org/2000/svg">
<path d="M0.886189 13.656V2.0889H10.7897C14.1013 2.0889 15.0186 3.36377 15.0186 4.73192V4.94958C15.0186 6.45766 13.7437 7.03291 13.184 7.20392C13.9769 7.40604 15.6716 8.07457 15.6716 10.1112V10.3289C15.6716 12.1479 14.6299 13.656 10.883 13.656H0.886189ZM10.1679 4.52981H4.50868V6.41102H10.1679C11.1784 6.41102 11.4272 5.9446 11.4272 5.47819V5.44709C11.4272 4.96513 11.1784 4.52981 10.1679 4.52981ZM10.4788 8.86747H4.50868V11.1374H10.4788C11.6759 11.1374 11.9091 10.4688 11.9091 10.0024V9.94023C11.9091 9.44272 11.6759 8.86747 10.4788 8.86747ZM20.4506 2.0889V13.656H16.8281V2.0889H20.4506ZM22.218 2.0889H26.2603L33.6452 9.36498V2.0889H37.2211V13.656H33.6452L25.7939 5.99124V13.656H22.218V2.0889ZM48.2611 8.92966L46.0223 4.592L43.8768 8.92966H48.2611ZM50.6865 13.656L49.5982 11.5416H42.5864L41.5447 13.656H37.8601L43.7058 2.0889H48.4011L54.5888 13.656H50.6865ZM55.2254 2.0889H59.2677L66.6526 9.36498V2.0889H70.2284V13.656H66.6526L58.8013 5.99124V13.656H55.2254V2.0889ZM79.6827 1.88679H80.3512C87.6273 1.88679 88.4824 5.54038 88.4824 7.60815V8.07457C88.4824 10.1112 87.6429 13.8581 80.3512 13.8581H79.6827C72.36 13.8581 71.536 10.1112 71.536 8.07457V7.60815C71.536 5.54038 72.36 1.88679 79.6827 1.88679ZM84.6889 7.93464V7.71698C84.6889 6.39547 83.9271 4.68528 80.0092 4.68528C76.0291 4.68528 75.3295 6.39547 75.3295 7.71698V7.90355C75.3295 9.22506 76.0913 11.0441 80.0092 11.0441C83.896 11.0441 84.6889 9.2717 84.6889 7.93464Z" fill="white"/>
<path d="M90.2374 2.91879V0.234492H99.1851C102.168 0.234492 103.659 1.72577 103.659 4.70833V9.18217C103.659 12.1647 102.168 13.656 99.1851 13.656H90.2374V10.9717H98.8093C100.241 10.9717 100.957 10.2648 100.957 8.8511V5.03045C100.957 3.62268 100.244 2.91879 98.8182 2.91879H90.2374ZM106.343 13.656V10.9717H119.765V13.656H106.343ZM106.343 5.6031H119.765V8.2874H106.343V5.6031ZM106.343 0.234492H119.765V2.91879H106.343V0.234492ZM128.712 9.03901L124.856 13.656H121.348L126.959 6.94525L121.348 0.234492H124.856L128.712 4.85149L132.569 0.234492H136.076L130.466 6.94525L136.076 13.656H132.569L128.712 9.03901Z" fill="url(#paint0_linear_2_8)"/>
<defs>
<linearGradient id="paint0_linear_2_8" x1="95" y1="-0.500063" x2="133.19" y2="13.4796" gradientUnits="userSpaceOnUse">
<stop stop-color="#FDDC02"/>
<stop offset="1" stop-color="#FF9900"/>
</linearGradient>
</defs>
</svg>
