<svg width="155" height="17" viewBox="0 0 155 17" fill="none" xmlns="http://www.w3.org/2000/svg">
<path d="M0.0155602 15.8669V2.61121H11.3649C15.1599 2.61121 16.2111 4.07219 16.2111 5.64007V5.88951C16.2111 7.61774 14.7501 8.27697 14.1087 8.47295C15.0173 8.70457 16.9594 9.4707 16.9594 11.8047V12.0541C16.9594 14.1387 15.7657 15.8669 11.4718 15.8669H0.0155602ZM10.6522 5.40846H4.16689V7.56429H10.6522C11.8103 7.56429 12.0954 7.02979 12.0954 6.49528V6.45965C12.0954 5.90733 11.8103 5.40846 10.6522 5.40846ZM11.0086 10.3794H4.16689V12.9806H11.0086C12.3805 12.9806 12.6477 12.2145 12.6477 11.68V11.6087C12.6477 11.0386 12.3805 10.3794 11.0086 10.3794ZM22.4361 2.61121V15.8669H18.2848V2.61121H22.4361ZM24.4615 2.61121H29.0939L37.5569 10.9495V2.61121H41.6548V15.8669H37.5569L28.5594 7.08324V15.8669H24.4615V2.61121ZM54.3066 10.4506L51.7409 5.47972L49.2822 10.4506H54.3066ZM57.086 15.8669L55.8388 13.4439H47.8034L46.6097 15.8669H42.3871L49.0862 2.61121H54.4669L61.558 15.8669H57.086ZM62.2875 2.61121H66.9199L75.3829 10.9495V2.61121H79.4808V15.8669H75.3829L66.3854 7.08324V15.8669H62.2875V2.61121ZM90.3152 2.37959H91.0814C99.4196 2.37959 100.4 6.56655 100.4 8.93619V9.4707C100.4 11.8047 99.4375 16.0986 91.0814 16.0986H90.3152C81.9235 16.0986 80.9792 11.8047 80.9792 9.4707V8.93619C80.9792 6.56655 81.9235 2.37959 90.3152 2.37959ZM96.0523 9.31034V9.06091C96.0523 7.54648 95.1792 5.58662 90.6894 5.58662C86.1283 5.58662 85.3265 7.54648 85.3265 9.06091V9.27471C85.3265 10.7891 86.1995 12.8737 90.6894 12.8737C95.1436 12.8737 96.0523 10.8426 96.0523 9.31034Z" fill="white"/>
<path d="M102.411 3.56226V0.486084H112.665C116.083 0.486084 117.792 2.19507 117.792 5.61304V10.74C117.792 14.158 116.083 15.8669 112.665 15.8669H102.411V12.7908H112.234C113.875 12.7908 114.695 11.9807 114.695 10.3606V5.98218C114.695 4.3689 113.878 3.56226 112.244 3.56226H102.411ZM120.868 15.8669V12.7908H136.249V15.8669H120.868ZM120.868 6.63843H136.249V9.7146H120.868V6.63843ZM120.868 0.486084H136.249V3.56226H120.868V0.486084ZM146.503 10.5759L142.083 15.8669H138.064L144.493 8.17651L138.064 0.486084H142.083L146.503 5.7771L150.922 0.486084H154.942L148.512 8.17651L154.942 15.8669H150.922L146.503 10.5759Z" fill="url(#paint0_linear_1_81)"/>
<defs>
<linearGradient id="paint0_linear_1_81" x1="126.5" y1="11.5" x2="147" y2="30.5" gradientUnits="userSpaceOnUse">
<stop stop-color="#FDDC02"/>
<stop offset="1" stop-color="#FF9900"/>
</linearGradient>
</defs>
</svg>
