<svg width="166" height="28" viewBox="0 0 166 28" fill="none" xmlns="http://www.w3.org/2000/svg">
<mask id="mask0_2_12" style="mask-type:alpha" maskUnits="userSpaceOnUse" x="0" y="0" width="166" height="28">
<path d="M0.308692 14C0.308692 6.63524 6.27904 0.664893 13.6438 0.664893H152.356C159.721 0.664893 165.691 6.63524 165.691 14C165.691 21.3648 159.721 27.3352 152.356 27.3352H13.6438C6.27904 27.3352 0.308692 21.3648 0.308692 14Z" fill="#242424" stroke="url(#paint0_linear_2_12)" stroke-width="0.617384"/>
</mask>
<g mask="url(#mask0_2_12)">
<g filter="url(#filter0_b_2_12)">
<path d="M0 14C0 6.46476 6.10855 0.356201 13.6438 0.356201H152.356C159.891 0.356201 166 6.46476 166 14C166 21.5353 159.891 27.6439 152.356 27.6439H13.6438C6.10855 27.6439 0 21.5353 0 14Z" fill="#242424" fill-opacity="0.7"/>
<path d="M0.355085 14C0.355085 6.66087 6.30466 0.711286 13.6438 0.711286H152.356C159.695 0.711286 165.645 6.66087 165.645 14C165.645 21.3392 159.695 27.2888 152.356 27.2888H13.6438C6.30466 27.2888 0.355085 21.3392 0.355085 14Z" stroke="url(#paint1_linear_2_12)" stroke-width="0.71017"/>
</g>
<g filter="url(#filter1_f_2_12)">
<ellipse cx="102.799" cy="8.82933" rx="11.9567" ry="20.4737" fill="#FD6B02"/>
</g>
<g style="mix-blend-mode:screen" opacity="0.7" filter="url(#filter2_f_2_12)">
<ellipse cx="3.23798" cy="25.3574" rx="9.98993" ry="13.5006" fill="#FD6B02"/>
</g>
</g>
<path d="M15.1423 13.842H18.9813V15.052H15.1423V13.842ZM15.2633 18H13.8333V10.3H19.4543V11.499H15.2633V18ZM20.8372 18V10.3H24.0052C24.6872 10.3 25.2702 10.41 25.7542 10.63C26.2456 10.85 26.6232 11.1653 26.8872 11.576C27.1512 11.9867 27.2832 12.4743 27.2832 13.039C27.2832 13.6037 27.1512 14.0913 26.8872 14.502C26.6232 14.9053 26.2456 15.217 25.7542 15.437C25.2702 15.6497 24.6872 15.756 24.0052 15.756H21.6292L22.2672 15.107V18H20.8372ZM25.8752 18L23.9282 15.206H25.4572L27.4152 18H25.8752ZM22.2672 15.261L21.6292 14.579H23.9392C24.5699 14.579 25.0429 14.4433 25.3582 14.172C25.6809 13.9007 25.8422 13.523 25.8422 13.039C25.8422 12.5477 25.6809 12.17 25.3582 11.906C25.0429 11.642 24.5699 11.51 23.9392 11.51H21.6292L22.2672 10.806V15.261ZM32.4911 18.11C31.8898 18.11 31.3361 18.011 30.8301 17.813C30.3241 17.615 29.8841 17.34 29.5101 16.988C29.1361 16.6287 28.8465 16.2107 28.6411 15.734C28.4358 15.25 28.3331 14.722 28.3331 14.15C28.3331 13.578 28.4358 13.0537 28.6411 12.577C28.8465 12.093 29.1361 11.675 29.5101 11.323C29.8841 10.9637 30.3241 10.685 30.8301 10.487C31.3361 10.289 31.8861 10.19 32.4801 10.19C33.0815 10.19 33.6315 10.289 34.1301 10.487C34.6361 10.685 35.0761 10.9637 35.4501 11.323C35.8241 11.675 36.1138 12.093 36.3191 12.577C36.5245 13.0537 36.6271 13.578 36.6271 14.15C36.6271 14.722 36.5245 15.25 36.3191 15.734C36.1138 16.218 35.8241 16.636 35.4501 16.988C35.0761 17.34 34.6361 17.615 34.1301 17.813C33.6315 18.011 33.0851 18.11 32.4911 18.11ZM32.4801 16.856C32.8688 16.856 33.2281 16.79 33.5581 16.658C33.8881 16.526 34.1741 16.339 34.4161 16.097C34.6581 15.8477 34.8451 15.5617 34.9771 15.239C35.1165 14.909 35.1861 14.546 35.1861 14.15C35.1861 13.754 35.1165 13.3947 34.9771 13.072C34.8451 12.742 34.6581 12.456 34.4161 12.214C34.1741 11.9647 33.8881 11.774 33.5581 11.642C33.2281 11.51 32.8688 11.444 32.4801 11.444C32.0915 11.444 31.7321 11.51 31.4021 11.642C31.0795 11.774 30.7935 11.9647 30.5441 12.214C30.3021 12.456 30.1115 12.742 29.9721 13.072C29.8401 13.3947 29.7741 13.754 29.7741 14.15C29.7741 14.5387 29.8401 14.898 29.9721 15.228C30.1115 15.558 30.3021 15.8477 30.5441 16.097C30.7861 16.339 31.0721 16.526 31.4021 16.658C31.7321 16.79 32.0915 16.856 32.4801 16.856ZM38.1429 18V10.3H39.3199L42.6859 15.921H42.0699L45.3809 10.3H46.5579L46.5689 18H45.2159L45.2049 12.423H45.4909L42.6749 17.12H42.0369L39.1769 12.423H39.5069V18H38.1429ZM51.1058 18V17.043L56.0778 10.971L56.2428 11.51H51.1828V10.3H57.5298V11.257L52.5578 17.329L52.3818 16.79H57.6728V18H51.1058ZM60.3027 13.501H64.1307V14.678H60.3027V13.501ZM60.4127 16.801H64.7577V18H58.9827V10.3H64.6037V11.499H60.4127V16.801ZM66.3519 18V10.3H69.5199C70.2019 10.3 70.7849 10.41 71.2689 10.63C71.7602 10.85 72.1379 11.1653 72.4019 11.576C72.6659 11.9867 72.7979 12.4743 72.7979 13.039C72.7979 13.6037 72.6659 14.0913 72.4019 14.502C72.1379 14.9053 71.7602 15.217 71.2689 15.437C70.7849 15.6497 70.2019 15.756 69.5199 15.756H67.1439L67.7819 15.107V18H66.3519ZM71.3899 18L69.4429 15.206H70.9719L72.9299 18H71.3899ZM67.7819 15.261L67.1439 14.579H69.4539C70.0845 14.579 70.5575 14.4433 70.8729 14.172C71.1955 13.9007 71.3569 13.523 71.3569 13.039C71.3569 12.5477 71.1955 12.17 70.8729 11.906C70.5575 11.642 70.0845 11.51 69.4539 11.51H67.1439L67.7819 10.806V15.261ZM78.0058 18.11C77.4044 18.11 76.8508 18.011 76.3448 17.813C75.8388 17.615 75.3988 17.34 75.0248 16.988C74.6508 16.6287 74.3611 16.2107 74.1558 15.734C73.9504 15.25 73.8478 14.722 73.8478 14.15C73.8478 13.578 73.9504 13.0537 74.1558 12.577C74.3611 12.093 74.6508 11.675 75.0248 11.323C75.3988 10.9637 75.8388 10.685 76.3448 10.487C76.8508 10.289 77.4008 10.19 77.9948 10.19C78.5961 10.19 79.1461 10.289 79.6448 10.487C80.1508 10.685 80.5908 10.9637 80.9648 11.323C81.3388 11.675 81.6284 12.093 81.8338 12.577C82.0391 13.0537 82.1418 13.578 82.1418 14.15C82.1418 14.722 82.0391 15.25 81.8338 15.734C81.6284 16.218 81.3388 16.636 80.9648 16.988C80.5908 17.34 80.1508 17.615 79.6448 17.813C79.1461 18.011 78.5998 18.11 78.0058 18.11ZM77.9948 16.856C78.3834 16.856 78.7428 16.79 79.0728 16.658C79.4028 16.526 79.6888 16.339 79.9308 16.097C80.1728 15.8477 80.3598 15.5617 80.4918 15.239C80.6311 14.909 80.7008 14.546 80.7008 14.15C80.7008 13.754 80.6311 13.3947 80.4918 13.072C80.3598 12.742 80.1728 12.456 79.9308 12.214C79.6888 11.9647 79.4028 11.774 79.0728 11.642C78.7428 11.51 78.3834 11.444 77.9948 11.444C77.6061 11.444 77.2468 11.51 76.9168 11.642C76.5941 11.774 76.3081 11.9647 76.0588 12.214C75.8168 12.456 75.6261 12.742 75.4868 13.072C75.3548 13.3947 75.2888 13.754 75.2888 14.15C75.2888 14.5387 75.3548 14.898 75.4868 15.228C75.6261 15.558 75.8168 15.8477 76.0588 16.097C76.3008 16.339 76.5868 16.526 76.9168 16.658C77.2468 16.79 77.6061 16.856 77.9948 16.856ZM88.2596 18V11.51H85.7076V10.3H92.2416V11.51H89.6896V18H88.2596ZM96.8153 18.11C96.214 18.11 95.6603 18.011 95.1543 17.813C94.6483 17.615 94.2083 17.34 93.8343 16.988C93.4603 16.6287 93.1707 16.2107 92.9653 15.734C92.76 15.25 92.6573 14.722 92.6573 14.15C92.6573 13.578 92.76 13.0537 92.9653 12.577C93.1707 12.093 93.4603 11.675 93.8343 11.323C94.2083 10.9637 94.6483 10.685 95.1543 10.487C95.6603 10.289 96.2103 10.19 96.8043 10.19C97.4057 10.19 97.9557 10.289 98.4543 10.487C98.9603 10.685 99.4003 10.9637 99.7743 11.323C100.148 11.675 100.438 12.093 100.643 12.577C100.849 13.0537 100.951 13.578 100.951 14.15C100.951 14.722 100.849 15.25 100.643 15.734C100.438 16.218 100.148 16.636 99.7743 16.988C99.4003 17.34 98.9603 17.615 98.4543 17.813C97.9557 18.011 97.4093 18.11 96.8153 18.11ZM96.8043 16.856C97.193 16.856 97.5523 16.79 97.8823 16.658C98.2123 16.526 98.4983 16.339 98.7403 16.097C98.9823 15.8477 99.1693 15.5617 99.3013 15.239C99.4407 14.909 99.5103 14.546 99.5103 14.15C99.5103 13.754 99.4407 13.3947 99.3013 13.072C99.1693 12.742 98.9823 12.456 98.7403 12.214C98.4983 11.9647 98.2123 11.774 97.8823 11.642C97.5523 11.51 97.193 11.444 96.8043 11.444C96.4157 11.444 96.0563 11.51 95.7263 11.642C95.4037 11.774 95.1177 11.9647 94.8683 12.214C94.6263 12.456 94.4357 12.742 94.2963 13.072C94.1643 13.3947 94.0983 13.754 94.0983 14.15C94.0983 14.5387 94.1643 14.898 94.2963 15.228C94.4357 15.558 94.6263 15.8477 94.8683 16.097C95.1103 16.339 95.3963 16.526 95.7263 16.658C96.0563 16.79 96.4157 16.856 96.8043 16.856ZM106.827 13.501H110.655V14.678H106.827V13.501ZM106.937 16.801H111.282V18H105.507V10.3H111.128V11.499H106.937V16.801ZM111.855 18L115.1 13.534V14.612L112.009 10.3H113.626L115.925 13.49L115.265 13.501L117.542 10.3H119.093L116.024 14.535V13.501L119.291 18H117.641L115.221 14.612H115.87L113.483 18H111.855ZM120.159 18V10.3H123.327C124.009 10.3 124.592 10.41 125.076 10.63C125.568 10.85 125.945 11.1653 126.209 11.576C126.473 11.9867 126.605 12.4743 126.605 13.039C126.605 13.6037 126.473 14.0913 126.209 14.502C125.945 14.9127 125.568 15.228 125.076 15.448C124.592 15.668 124.009 15.778 123.327 15.778H120.951L121.589 15.107V18H120.159ZM121.589 15.261L120.951 14.568H123.261C123.892 14.568 124.365 14.436 124.68 14.172C125.003 13.9007 125.164 13.523 125.164 13.039C125.164 12.5477 125.003 12.17 124.68 11.906C124.365 11.642 123.892 11.51 123.261 11.51H120.951L121.589 10.806V15.261ZM129.354 13.501H133.182V14.678H129.354V13.501ZM129.464 16.801H133.809V18H128.034V10.3H133.655V11.499H129.464V16.801ZM135.403 18V10.3H138.571C139.253 10.3 139.836 10.41 140.32 10.63C140.811 10.85 141.189 11.1653 141.453 11.576C141.717 11.9867 141.849 12.4743 141.849 13.039C141.849 13.6037 141.717 14.0913 141.453 14.502C141.189 14.9053 140.811 15.217 140.32 15.437C139.836 15.6497 139.253 15.756 138.571 15.756H136.195L136.833 15.107V18H135.403ZM140.441 18L138.494 15.206H140.023L141.981 18H140.441ZM136.833 15.261L136.195 14.579H138.505C139.135 14.579 139.608 14.4433 139.924 14.172C140.246 13.9007 140.408 13.523 140.408 13.039C140.408 12.5477 140.246 12.17 139.924 11.906C139.608 11.642 139.135 11.51 138.505 11.51H136.195L136.833 10.806V15.261ZM144.903 18V11.51H142.351V10.3H148.885V11.51H146.333V18H144.903ZM150.129 15.448L149.865 10.3H151.493L151.218 15.448H150.129ZM150.679 18.077C150.422 18.077 150.21 17.9927 150.041 17.824C149.872 17.6553 149.788 17.4537 149.788 17.219C149.788 16.9843 149.872 16.7863 150.041 16.625C150.21 16.4563 150.422 16.372 150.679 16.372C150.936 16.372 151.145 16.4563 151.306 16.625C151.467 16.7863 151.548 16.9843 151.548 17.219C151.548 17.4537 151.467 17.6553 151.306 17.824C151.145 17.9927 150.936 18.077 150.679 18.077Z" fill="url(#paint2_linear_2_12)"/>
<defs>
<filter id="filter0_b_2_12" x="-10.6525" y="-10.2963" width="187.305" height="48.5928" filterUnits="userSpaceOnUse" color-interpolation-filters="sRGB">
<feFlood flood-opacity="0" result="BackgroundImageFix"/>
<feGaussianBlur in="BackgroundImageFix" stdDeviation="5.32627"/>
<feComposite in2="SourceAlpha" operator="in" result="effect1_backgroundBlur_2_12"/>
<feBlend mode="normal" in="SourceGraphic" in2="effect1_backgroundBlur_2_12" result="shape"/>
</filter>
<filter id="filter1_f_2_12" x="57.4187" y="-45.0676" width="90.7598" height="107.794" filterUnits="userSpaceOnUse" color-interpolation-filters="sRGB">
<feFlood flood-opacity="0" result="BackgroundImageFix"/>
<feBlend mode="normal" in="SourceGraphic" in2="BackgroundImageFix" result="shape"/>
<feGaussianBlur stdDeviation="16.7116" result="effect1_foregroundBlur_2_12"/>
</filter>
<filter id="filter2_f_2_12" x="-63.0437" y="-44.4349" width="132.563" height="139.585" filterUnits="userSpaceOnUse" color-interpolation-filters="sRGB">
<feFlood flood-opacity="0" result="BackgroundImageFix"/>
<feBlend mode="normal" in="SourceGraphic" in2="BackgroundImageFix" result="shape"/>
<feGaussianBlur stdDeviation="28.1459" result="effect1_foregroundBlur_2_12"/>
</filter>
<linearGradient id="paint0_linear_2_12" x1="83" y1="0.356201" x2="83" y2="27.6439" gradientUnits="userSpaceOnUse">
<stop stop-color="#FFB200"/>
<stop offset="1" stop-color="#FFB200" stop-opacity="0"/>
</linearGradient>
<linearGradient id="paint1_linear_2_12" x1="168.879" y1="6.90526" x2="34.3859" y2="46.6114" gradientUnits="userSpaceOnUse">
<stop stop-color="#FFC265"/>
<stop offset="0.530723" stop-color="#FFC265" stop-opacity="0"/>
<stop offset="1" stop-color="#FFC265"/>
</linearGradient>
<linearGradient id="paint2_linear_2_12" x1="188.435" y1="14.5" x2="12" y2="14.5001" gradientUnits="userSpaceOnUse">
<stop stop-color="#E47E00"/>
<stop offset="0.223958" stop-color="#FDDC02"/>
<stop offset="0.645833" stop-color="white"/>
</linearGradient>
</defs>
</svg>
