<svg width="166" height="28" viewBox="0 0 166 28" fill="none" xmlns="http://www.w3.org/2000/svg">
<mask id="mask0_2_12" style="mask-type:alpha" maskUnits="userSpaceOnUse" x="0" y="0" width="166" height="28">
<path d="M0.308692 14C0.308692 6.63524 6.27904 0.664893 13.6438 0.664893H152.356C159.721 0.664893 165.691 6.63524 165.691 14C165.691 21.3648 159.721 27.3352 152.356 27.3352H13.6438C6.27904 27.3352 0.308692 21.3648 0.308692 14Z" fill="#242424" stroke="url(#paint0_linear_2_12)" stroke-width="0.617384"/>
</mask>
<g mask="url(#mask0_2_12)">
<g filter="url(#filter0_b_2_12)">
<path d="M0 14C0 6.46476 6.10855 0.356201 13.6438 0.356201H152.356C159.891 0.356201 166 6.46476 166 14C166 21.5353 159.891 27.6439 152.356 27.6439H13.6438C6.10855 27.6439 0 21.5353 0 14Z" fill="#242424" fill-opacity="0.7"/>
<path d="M0.355085 14C0.355085 6.66087 6.30466 0.711286 13.6438 0.711286H152.356C159.695 0.711286 165.645 6.66087 165.645 14C165.645 21.3392 159.695 27.2888 152.356 27.2888H13.6438C6.30466 27.2888 0.355085 21.3392 0.355085 14Z" stroke="url(#paint1_linear_2_12)" stroke-width="0.71017"/>
</g>
<g filter="url(#filter1_f_2_12)">
<ellipse cx="102.799" cy="8.82933" rx="11.9567" ry="20.4737" fill="#FD6B02"/>
</g>
<g style="mix-blend-mode:screen" opacity="0.7" filter="url(#filter2_f_2_12)">
<ellipse cx="3.23798" cy="25.3574" rx="9.98993" ry="13.5006" fill="#FD6B02"/>
</g>
</g>
<path d="M22.0975 17.8297C21.5108 17.8297 20.9645 17.7344 20.4585 17.5437C19.9598 17.3457 19.5235 17.0707 19.1495 16.7187C18.7828 16.3594 18.4968 15.9377 18.2915 15.4537C18.0862 14.9697 17.9835 14.4417 17.9835 13.8697C17.9835 13.2977 18.0862 12.7697 18.2915 12.2857C18.4968 11.8017 18.7865 11.3837 19.1605 11.0317C19.5345 10.6724 19.9708 10.3974 20.4695 10.2067C20.9682 10.0087 21.5145 9.90973 22.1085 9.90973C22.7392 9.90973 23.3148 10.0197 23.8355 10.2397C24.3562 10.4524 24.7962 10.7714 25.1555 11.1967L24.2315 12.0657C23.9528 11.7651 23.6412 11.5414 23.2965 11.3947C22.9518 11.2407 22.5778 11.1637 22.1745 11.1637C21.7712 11.1637 21.4008 11.2297 21.0635 11.3617C20.7335 11.4937 20.4438 11.6807 20.1945 11.9227C19.9525 12.1647 19.7618 12.4507 19.6225 12.7807C19.4905 13.1107 19.4245 13.4737 19.4245 13.8697C19.4245 14.2657 19.4905 14.6287 19.6225 14.9587C19.7618 15.2887 19.9525 15.5747 20.1945 15.8167C20.4438 16.0587 20.7335 16.2457 21.0635 16.3777C21.4008 16.5097 21.7712 16.5757 22.1745 16.5757C22.5778 16.5757 22.9518 16.5024 23.2965 16.3557C23.6412 16.2017 23.9528 15.9707 24.2315 15.6627L25.1555 16.5427C24.7962 16.9607 24.3562 17.2797 23.8355 17.4997C23.3148 17.7197 22.7355 17.8297 22.0975 17.8297ZM35.0217 10.0197H36.4517V17.7197H35.0217V10.0197ZM31.0397 17.7197H29.6097V10.0197H31.0397V17.7197ZM35.1317 14.4197H30.9187V13.1987H35.1317V14.4197ZM38.7217 16.5097C39.125 16.6491 39.4807 16.6857 39.7887 16.6197C40.0967 16.5537 40.3717 16.3301 40.6137 15.9487L40.9877 15.3657L41.1307 15.2117L43.8147 10.0197H45.2227L41.8787 16.2347C41.6074 16.7554 41.2847 17.1514 40.9107 17.4227C40.5367 17.6941 40.1334 17.8444 39.7007 17.8737C39.2754 17.9104 38.8317 17.8297 38.3697 17.6317L38.7217 16.5097ZM41.0977 16.4437L37.6657 10.0197H39.1947L41.8787 15.3437L41.0977 16.4437ZM45.9667 17.8297C45.8421 17.8297 45.7174 17.8187 45.5927 17.7967C45.4681 17.7747 45.3324 17.7491 45.1857 17.7197L45.2847 16.4767C45.3874 16.5061 45.4974 16.5207 45.6147 16.5207C45.9227 16.5207 46.1684 16.3961 46.3517 16.1467C46.5351 15.8901 46.6671 15.5161 46.7477 15.0247C46.8284 14.5334 46.8834 13.9284 46.9127 13.2097L47.0227 10.0197H52.6877V17.7197H51.2797V10.8777L51.6097 11.2297H47.9467L48.2547 10.8667L48.1777 13.1547C48.1557 13.9174 48.1044 14.5884 48.0237 15.1677C47.9431 15.7471 47.8184 16.2347 47.6497 16.6307C47.4884 17.0194 47.2721 17.3164 47.0007 17.5217C46.7294 17.7271 46.3847 17.8297 45.9667 17.8297ZM59.3309 17.7197V15.2557L59.6829 15.5747H57.4279C56.7825 15.5747 56.2252 15.4684 55.7559 15.2557C55.2939 15.0357 54.9382 14.7241 54.6889 14.3207C54.4395 13.9101 54.3149 13.4187 54.3149 12.8467C54.3149 12.2527 54.4469 11.7467 54.7109 11.3287C54.9749 10.9034 55.3489 10.5807 55.8329 10.3607C56.3169 10.1334 56.8852 10.0197 57.5379 10.0197H60.7389V17.7197H59.3309ZM54.3369 17.7197L56.2399 14.9697H57.6809L55.8439 17.7197H54.3369ZM59.3309 14.7937V10.8337L59.6829 11.2297H57.5819C56.9952 11.2297 56.5442 11.3654 56.2289 11.6367C55.9209 11.9007 55.7669 12.2967 55.7669 12.8247C55.7669 13.3307 55.9135 13.7231 56.2069 14.0017C56.5075 14.2731 56.9475 14.4087 57.5269 14.4087H59.6829L59.3309 14.7937ZM71.0656 17.0597V11.2297H68.0516L67.9966 12.5937C67.9746 13.1071 67.9416 13.5947 67.8976 14.0567C67.8609 14.5114 67.7986 14.9257 67.7106 15.2997C67.6299 15.6737 67.5162 15.9854 67.3696 16.2347C67.2229 16.4841 67.0432 16.6491 66.8306 16.7297L65.2906 16.5097C65.5692 16.5244 65.7966 16.4291 65.9726 16.2237C66.1559 16.0184 66.2989 15.7324 66.4016 15.3657C66.5042 14.9991 66.5812 14.5701 66.6326 14.0787C66.6839 13.5801 66.7206 13.0411 66.7426 12.4617L66.8306 10.0197H72.4736V17.0597H71.0656ZM65.0266 19.3587L65.0376 16.5097H73.5846V19.3587H72.2646V17.7197H66.3576V19.3587H65.0266ZM78.506 17.8297C77.9047 17.8297 77.351 17.7307 76.845 17.5327C76.339 17.3347 75.899 17.0597 75.525 16.7077C75.151 16.3484 74.8614 15.9304 74.656 15.4537C74.4507 14.9697 74.348 14.4417 74.348 13.8697C74.348 13.2977 74.4507 12.7734 74.656 12.2967C74.8614 11.8127 75.151 11.3947 75.525 11.0427C75.899 10.6834 76.339 10.4047 76.845 10.2067C77.351 10.0087 77.901 9.90973 78.495 9.90973C79.0964 9.90973 79.6464 10.0087 80.145 10.2067C80.651 10.4047 81.091 10.6834 81.465 11.0427C81.839 11.3947 82.1287 11.8127 82.334 12.2967C82.5394 12.7734 82.642 13.2977 82.642 13.8697C82.642 14.4417 82.5394 14.9697 82.334 15.4537C82.1287 15.9377 81.839 16.3557 81.465 16.7077C81.091 17.0597 80.651 17.3347 80.145 17.5327C79.6464 17.7307 79.1 17.8297 78.506 17.8297ZM78.495 16.5757C78.8837 16.5757 79.243 16.5097 79.573 16.3777C79.903 16.2457 80.189 16.0587 80.431 15.8167C80.673 15.5674 80.86 15.2814 80.992 14.9587C81.1314 14.6287 81.201 14.2657 81.201 13.8697C81.201 13.4737 81.1314 13.1144 80.992 12.7917C80.86 12.4617 80.673 12.1757 80.431 11.9337C80.189 11.6844 79.903 11.4937 79.573 11.3617C79.243 11.2297 78.8837 11.1637 78.495 11.1637C78.1064 11.1637 77.747 11.2297 77.417 11.3617C77.0944 11.4937 76.8084 11.6844 76.559 11.9337C76.317 12.1757 76.1264 12.4617 75.987 12.7917C75.855 13.1144 75.789 13.4737 75.789 13.8697C75.789 14.2584 75.855 14.6177 75.987 14.9477C76.1264 15.2777 76.317 15.5674 76.559 15.8167C76.801 16.0587 77.087 16.2457 77.417 16.3777C77.747 16.5097 78.1064 16.5757 78.495 16.5757ZM88.5501 14.3757V13.2427H92.5211V14.3757H88.5501ZM89.5511 9.90973C90.1157 9.90973 90.6364 10.0087 91.1131 10.2067C91.5897 10.3974 92.0041 10.6724 92.3561 11.0317C92.7154 11.3837 92.9904 11.8017 93.1811 12.2857C93.3791 12.7697 93.4781 13.2977 93.4781 13.8697C93.4781 14.4417 93.3791 14.9697 93.1811 15.4537C92.9904 15.9377 92.7154 16.3594 92.3561 16.7187C92.0041 17.0707 91.5897 17.3457 91.1131 17.5437C90.6364 17.7344 90.1157 17.8297 89.5511 17.8297C88.8984 17.8297 88.3044 17.7197 87.7691 17.4997C87.2411 17.2797 86.8011 16.9607 86.4491 16.5427L87.3511 15.6627C87.6371 15.9707 87.9561 16.2017 88.3081 16.3557C88.6674 16.5024 89.0561 16.5757 89.4741 16.5757C89.8407 16.5757 90.1817 16.5097 90.4971 16.3777C90.8124 16.2384 91.0837 16.0514 91.3111 15.8167C91.5384 15.5747 91.7144 15.2887 91.8391 14.9587C91.9637 14.6287 92.0261 14.2657 92.0261 13.8697C92.0261 13.4737 91.9637 13.1107 91.8391 12.7807C91.7144 12.4507 91.5384 12.1684 91.3111 11.9337C91.0837 11.6917 90.8124 11.5047 90.4971 11.3727C90.1817 11.2334 89.8407 11.1637 89.4741 11.1637C89.0561 11.1637 88.6674 11.2407 88.3081 11.3947C87.9561 11.5414 87.6371 11.7687 87.3511 12.0767L86.4491 11.1967C86.8011 10.7787 87.2411 10.4597 87.7691 10.2397C88.3044 10.0197 88.8984 9.90973 89.5511 9.90973ZM100.166 17.7197L97.5586 13.9687L98.7136 13.2537L101.783 17.7197H100.166ZM95.0726 17.7197V10.0197H96.4806V17.7197H95.0726ZM96.0516 14.4747V13.2427H98.6476V14.4747H96.0516ZM98.8456 14.0347L97.5366 13.8587L100.166 10.0197H101.684L98.8456 14.0347ZM106.274 17.8297C105.687 17.8297 105.141 17.7344 104.635 17.5437C104.136 17.3457 103.7 17.0707 103.326 16.7187C102.959 16.3594 102.673 15.9377 102.468 15.4537C102.262 14.9697 102.16 14.4417 102.16 13.8697C102.16 13.2977 102.262 12.7697 102.468 12.2857C102.673 11.8017 102.963 11.3837 103.337 11.0317C103.711 10.6724 104.147 10.3974 104.646 10.2067C105.144 10.0087 105.691 9.90973 106.285 9.90973C106.915 9.90973 107.491 10.0197 108.012 10.2397C108.532 10.4524 108.972 10.7714 109.332 11.1967L108.408 12.0657C108.129 11.7651 107.817 11.5414 107.473 11.3947C107.128 11.2407 106.754 11.1637 106.351 11.1637C105.947 11.1637 105.577 11.2297 105.24 11.3617C104.91 11.4937 104.62 11.6807 104.371 11.9227C104.129 12.1647 103.938 12.4507 103.799 12.7807C103.667 13.1107 103.601 13.4737 103.601 13.8697C103.601 14.2657 103.667 14.6287 103.799 14.9587C103.938 15.2887 104.129 15.5747 104.371 15.8167C104.62 16.0587 104.91 16.2457 105.24 16.3777C105.577 16.5097 105.947 16.5757 106.351 16.5757C106.754 16.5757 107.128 16.5024 107.473 16.3557C107.817 16.2017 108.129 15.9707 108.408 15.6627L109.332 16.5427C108.972 16.9607 108.532 17.2797 108.012 17.4997C107.491 17.7197 106.912 17.8297 106.274 17.8297ZM110.671 17.7197V10.0197H117.48V17.7197H116.072V10.8777L116.402 11.2297H111.749L112.079 10.8777V17.7197H110.671ZM120.971 13.2207H124.799V14.3977H120.971V13.2207ZM121.081 16.5207H125.426V17.7197H119.651V10.0197H125.272V11.2187H121.081V16.5207ZM127.02 17.7197V10.0197H130.188C130.87 10.0197 131.453 10.1297 131.937 10.3497C132.428 10.5697 132.806 10.8851 133.07 11.2957C133.334 11.7064 133.466 12.1941 133.466 12.7587C133.466 13.3234 133.334 13.8111 133.07 14.2217C132.806 14.6324 132.428 14.9477 131.937 15.1677C131.453 15.3877 130.87 15.4977 130.188 15.4977H127.812L128.45 14.8267V17.7197H127.02ZM128.45 14.9807L127.812 14.2877H130.122C130.753 14.2877 131.226 14.1557 131.541 13.8917C131.864 13.6204 132.025 13.2427 132.025 12.7587C132.025 12.2674 131.864 11.8897 131.541 11.6257C131.226 11.3617 130.753 11.2297 130.122 11.2297H127.812L128.45 10.5257V14.9807ZM136.21 17.7197V10.8777L136.551 11.2297H133.669V10.0197H140.181V11.2297H137.299L137.629 10.8777V17.7197H136.21ZM140.049 17.7197L143.514 10.0197H144.922L148.398 17.7197H146.902L143.921 10.7787H144.493L141.523 17.7197H140.049ZM141.644 15.9377L142.029 14.8157H146.187L146.572 15.9377H141.644Z" fill="url(#paint2_linear_2_12)"/>
<defs>
<filter id="filter0_b_2_12" x="-10.6525" y="-10.2963" width="187.305" height="48.5928" filterUnits="userSpaceOnUse" color-interpolation-filters="sRGB">
<feFlood flood-opacity="0" result="BackgroundImageFix"/>
<feGaussianBlur in="BackgroundImageFix" stdDeviation="5.32627"/>
<feComposite in2="SourceAlpha" operator="in" result="effect1_backgroundBlur_2_12"/>
<feBlend mode="normal" in="SourceGraphic" in2="effect1_backgroundBlur_2_12" result="shape"/>
</filter>
<filter id="filter1_f_2_12" x="57.4187" y="-45.0676" width="90.7598" height="107.794" filterUnits="userSpaceOnUse" color-interpolation-filters="sRGB">
<feFlood flood-opacity="0" result="BackgroundImageFix"/>
<feBlend mode="normal" in="SourceGraphic" in2="BackgroundImageFix" result="shape"/>
<feGaussianBlur stdDeviation="16.7116" result="effect1_foregroundBlur_2_12"/>
</filter>
<filter id="filter2_f_2_12" x="-63.0437" y="-44.4349" width="132.563" height="139.585" filterUnits="userSpaceOnUse" color-interpolation-filters="sRGB">
<feFlood flood-opacity="0" result="BackgroundImageFix"/>
<feBlend mode="normal" in="SourceGraphic" in2="BackgroundImageFix" result="shape"/>
<feGaussianBlur stdDeviation="28.1459" result="effect1_foregroundBlur_2_12"/>
</filter>
<linearGradient id="paint0_linear_2_12" x1="83" y1="0.356201" x2="83" y2="27.6439" gradientUnits="userSpaceOnUse">
<stop stop-color="#FFB200"/>
<stop offset="1" stop-color="#FFB200" stop-opacity="0"/>
</linearGradient>
<linearGradient id="paint1_linear_2_12" x1="168.879" y1="6.90526" x2="34.3859" y2="46.6114" gradientUnits="userSpaceOnUse">
<stop stop-color="#FFC265"/>
<stop offset="0.530723" stop-color="#FFC265" stop-opacity="0"/>
<stop offset="1" stop-color="#FFC265"/>
</linearGradient>
<linearGradient id="paint2_linear_2_12" x1="185.507" y1="14.5417" x2="14.7808" y2="14.5417" gradientUnits="userSpaceOnUse">
<stop stop-color="#E47E00"/>
<stop offset="0.223958" stop-color="#FDDC02"/>
<stop offset="0.645833" stop-color="white"/>
</linearGradient>
</defs>
</svg>
